<?xml version="1.0"?><svg width="97.774994" height="134.51128" xmlns="http://www.w3.org/2000/svg" xmlns:xlink="http://www.w3.org/1999/xlink">
 <defs>
  <linearGradient id="linearGradient2876">
   <stop stop-color="#cccccc" id="stop2878" offset="0"/>
   <stop stop-color="#767676" id="stop2880" offset="1"/>
  </linearGradient>
  <linearGradient id="linearGradient4108">
   <stop stop-color="#ffffff" id="stop4110" offset="0"/>
   <stop stop-color="#ffffff" stop-opacity="0" id="stop4112" offset="1"/>
  </linearGradient>
  <linearGradient y2="1.21741" x2="0.243641" y1="-0.391609" x1="0.230371" id="linearGradient2854" xlink:href="#linearGradient4108"/>
  <linearGradient y2="0.551665" x2="0.603214" y1="0.500014" x1="0.313294" id="linearGradient2882" xlink:href="#linearGradient2876"/>
  <linearGradient y2="0.464167" x2="0.259383" y1="0.449358" x1="0.667969" id="linearGradient2884" xlink:href="#linearGradient2876"/>
 </defs>
 <metadata id="metadata7">image/svg+xml</metadata>
 <g>
  <title>Layer 1</title>
  <path fill="#7f7f7f" fill-rule="evenodd" stroke="#000000" stroke-width="1px" marker-start="none" marker-mid="none" marker-end="none" stroke-miterlimit="4" stroke-dashoffset="0" d="m95.45961,129.219589a45.714752,4.869779 0 1 1 -91.429517,0a45.714752,4.869779 0 1 1 91.429517,0z" id="path2184"/>
  <path fill="url(#linearGradient2882)" fill-rule="evenodd" stroke="#000000" stroke-width="1px" id="path2866" d="m22.566162,116.549728c-0.87854,1.317703 -2.415894,15.592758 -2.415894,15.592758l4.831665,0l4.831543,-14.275055l-7.247314,-1.317703z"/>
  <path fill="#000000" fill-rule="nonzero" stroke="#000000" stroke-width="0.926859" marker-start="none" marker-mid="none" marker-end="none" stroke-miterlimit="4" stroke-dashoffset="0" d="m20.556274,36.920502l57.027954,0c10.797852,0 21.46814,5.479126 19.490601,19.49054l-6.643799,41.937256c-2.686523,13.33313 -12.37915,19.690628 -20.3396,19.690628l-42.042358,0c-7.960327,0 -18.420654,-8.660202 -20.3396,-19.690628l-6.643799,-41.937256c-3.460693,-15.494629 8.692871,-19.49054 19.490601,-19.49054z" id="path4116"/>
  <path fill="#4387cc" fill-rule="nonzero" stroke="#000000" stroke-width="0.852571" marker-start="none" marker-mid="none" marker-end="none" stroke-miterlimit="4" stroke-dashoffset="0" id="rect2160" d="m22.827271,40.042114l52.457031,0c9.932373,0 19.747437,5.039978 17.928345,17.928375l-6.852783,38.575943c-2.423096,12.025406 -10.645386,15.146027 -17.967896,15.146027l-38.672607,0c-7.322388,0 -16.237061,-5.197479 -17.967773,-15.146027l-6.852783,-38.575943c-3.183472,-14.252747 7.995972,-17.928375 17.928467,-17.928375z"/>
  <path opacity="0.4" fill="url(#linearGradient2854)" fill-rule="nonzero" stroke-width="1.929269" marker-start="none" marker-mid="none" marker-end="none" stroke-miterlimit="4" stroke-dashoffset="0" d="m25.115845,43.188141l47.850464,0c9.060059,0 18.013428,4.597382 16.354004,16.353973l-3.928833,23.110153c-25.552612,-14.069565 -49.423096,-10.897141 -72.558838,-0.195129l-4.070801,-22.915024c-2.903931,-13.001099 7.293823,-16.353973 16.354004,-16.353973z" id="path3137"/>
  <path fill="url(#linearGradient2884)" fill-rule="evenodd" stroke="#000000" stroke-width="1px" marker-start="none" marker-mid="none" marker-end="none" stroke-miterlimit="4" stroke-dashoffset="0" d="m77.397705,116.549728c0.87854,1.317703 2.415771,15.592758 2.415771,15.592758l-4.831543,0l-4.831665,-14.275055l7.247437,-1.317703z" id="path2868"/>
  <path fill="#ff0000" fill-rule="evenodd" stroke="#666666" stroke-width="0.624" marker-start="none" marker-mid="none" marker-end="none" stroke-miterlimit="4" stroke-dashoffset="0" d="m33.029121,114.353592a1.019989,1.019989 0 1 1 -2.039932,0a1.019989,1.019989 0 1 1 2.039932,0z" id="path2870"/>
  <path fill="#000000" fill-rule="evenodd" stroke="#000000" stroke-width="0.87285px" id="path2886" d="m65.104248,37.495575c0.913696,-2.028168 16.424561,-37.058838 16.424561,-37.058838l-14.723511,38.096344l-1.70105,-1.037506z"/>
  <path fill="none" fill-rule="evenodd" stroke="#000000" stroke-width="0.87285px" id="path2888" d="m62.384644,19.46286l18.805542,8.201294"/>
  <path fill="none" fill-rule="evenodd" stroke="#000000" stroke-width="0.87285px" d="m67.57019,12.202637l15.60498,6.80545" id="path2890"/>
  <path fill="none" fill-rule="evenodd" stroke="#000000" stroke-width="0.87285px" id="path2892" d="m72.03894,6.533997l12.404297,5.409668"/>
 </g>
</svg>